<svg xmlns="http://www.w3.org/2000/svg" width="12" height="12" viewBox="0 0 12 12">
    <g fill="none" fill-rule="evenodd">
        <g fill="#FFF">
            <g>
                <g>
                    <path d="M15 6c1.657 0 3 1.343 3 3v6c0 1.657-1.343 3-3 3H9c-1.657 0-3-1.343-3-3V9c0-1.657 1.343-3 3-3h6zm-.051 3.361c-.277-.182-.65-.105-.831.172l-2.23 3.386-1.846-1.835-.084-.07c-.234-.16-.557-.136-.765.073-.233.235-.232.615.003.848l2.888 2.87 3.036-4.613.047-.085c.118-.264.03-.582-.218-.746z" transform="translate(-855 -715) translate(820 709) translate(29)"/>
                </g>
            </g>
        </g>
    </g>
</svg>
