<svg xmlns="http://www.w3.org/2000/svg" viewBox="0 0 34.2 38.73"><defs><style>.cls-1{fill:#0086d6;}</style></defs><title>LensProposalBuilder_Delivery_Blue</title><g id="Calque_2" data-name="Calque 2"><g id="Calque_1-2" data-name="Calque 1"><path class="cls-1" d="M29.8,11.56a.76.76,0,0,0-.74-.63H24.62V6.48A6.48,6.48,0,0,0,18.14,0a6.06,6.06,0,0,0-1.42.16A6.06,6.06,0,0,0,15.3,0,6.49,6.49,0,0,0,8.81,6.48v4.45H4.38a.75.75,0,0,0-.74.65L0,37.88a.74.74,0,0,0,.74.85H33.44a.76.76,0,0,0,.75-.87ZM23.12,6.48v4.45H21.78V6.48a6.45,6.45,0,0,0-2.05-4.72A5,5,0,0,1,23.12,6.48ZM16.72,1.7a5,5,0,0,1,3.56,4.78v4.45H13.16V6.48A5,5,0,0,1,16.72,1.7ZM10.31,6.48a5,5,0,0,1,3.4-4.72,6.45,6.45,0,0,0-2.05,4.72v4.45H10.31ZM8,33.46a3.47,3.47,0,1,1,4.36,2.24A3.48,3.48,0,0,1,8,33.46Zm4.44,3.77a2.66,2.66,0,0,0,.38-.1,4.88,4.88,0,0,0,2.9-2.46,4.94,4.94,0,0,0-.93-5.81A3.14,3.14,0,0,1,16.21,28a3.14,3.14,0,0,1,1.71-.11,4.75,4.75,0,0,0,.16,2.36,5,5,0,0,0,4.72,3.45,5.07,5.07,0,0,0,1.53-.23,5,5,0,0,0,2.41-7.78l1-.33a.75.75,0,0,0-.46-1.43l-1.86.59a3.35,3.35,0,0,0-.36-.21,5,5,0,0,0-6.7,2.14,4.72,4.72,0,0,0-2.64.12A4.52,4.52,0,0,0,13.55,28a5,5,0,0,0-6.86,2.53l-1.86.59a.77.77,0,0,0-.49.95.76.76,0,0,0,.72.52.66.66,0,0,0,.23,0l1-.33a4.88,4.88,0,0,0,.22,1.72,5,5,0,0,0,3.58,3.31H1.61L5,12.43H28.42l4.14,24.8ZM21.75,25.4a3.57,3.57,0,0,1,1.07-.17,3.42,3.42,0,0,1,1.58.39A3.47,3.47,0,0,1,23.87,32a3.46,3.46,0,0,1-4.13-1.7,3.35,3.35,0,0,1-.23-.55A3.46,3.46,0,0,1,21.75,25.4Z"/></g></g></svg>