<?xml version="1.0" encoding="utf-8"?>
<!-- Generator: Adobe Illustrator 22.0.1, SVG Export Plug-In . SVG Version: 6.00 Build 0)  -->
<svg version="1.1" id="Calque_1" xmlns="http://www.w3.org/2000/svg" xmlns:xlink="http://www.w3.org/1999/xlink" x="0px" y="0px"
	 viewBox="0 0 45 45" style="enable-background:new 0 0 45 45;" xml:space="preserve">
<style type="text/css">
	.st0{fill:#FFFFFE;}
</style>
<g>
	<title>Logo Essilor</title>
	<g id="EssilorCompanion---DA---Adult">
		
			<g id="LOT-5-_x2F_-Discover-_x2F_-EssilorCompanion_x5F_V1_x5F_Discover_x5F_02-a" transform="translate(-34.000000, -14.000000)">
			<g id="Group" transform="translate(35.000000, 15.000000)">
				<g id="Group-18" transform="translate(-0.682540, -0.546032)">
					<path class="st0" d="M44.1,44.1H0.2V0.2h43.9V44.1z M1.2,43.1h41.9V1.2H1.2V43.1z"/>
					<polygon id="Fill-2" class="st0" points="22,38.1 23.2,38.1 23.2,32 22,32 					"/>
					<g id="Group-17" transform="translate(3.685714, 6.608486)">
						<path id="Fill-3" class="st0" d="M27.7,30.4c-1.1,0-1.9-0.8-1.9-1.9c0-1.1,0.8-1.9,1.9-1.9c1.1,0,1.9,0.8,1.9,1.9
							C29.6,29.5,28.8,30.4,27.7,30.4 M27.7,25.3c-1.8,0-3.2,1.4-3.2,3.2c0,1.8,1.4,3.2,3.2,3.2c1.8,0,3.2-1.4,3.2-3.2
							C30.9,26.6,29.5,25.3,27.7,25.3"/>
						<path id="Fill-5" class="st0" d="M22.2,29.7v-4.2h-1.3v4.4c0,1.1,0.6,1.7,1.9,1.7h1.6v-1.2h-1.6
							C22.4,30.2,22.2,30.1,22.2,29.7"/>
						<path id="Fill-7" class="st0" d="M31.8,31.5H33v-4.8h1.5c0.5,0,1,0.3,1,0.9c0,0.6-0.3,0.8-0.8,1c-0.1,0-0.2,0.1-0.3,0.2
							c-0.4,0.2-0.4,0.7-0.1,1.1l1.3,1.7h1.7l-1.6-2c0.9-0.4,1.3-1,1.3-1.9c0-1.3-0.9-2.1-2.3-2.1h-2.8V31.5z"/>
						<path id="Fill-9" class="st0" d="M3.3,26.5c1,0,1.6,0.6,1.7,1.5H1.5C1.7,27.1,2.4,26.5,3.3,26.5 M3.4,31.6
							c1.2,0,2-0.5,2.7-1.1l-0.9-0.8c-0.5,0.5-1,0.7-1.7,0.7c-0.9,0-1.8-0.5-1.9-1.4h4.8c0-0.2,0-0.3,0-0.5c0-1.8-1-3.3-3.1-3.3
							c-1.9,0-3.2,1.4-3.2,3.2C0.1,30.3,1.6,31.6,3.4,31.6"/>
						<path id="Fill-11" class="st0" d="M15.5,28C14.8,27.7,14,27.4,14,27c0-0.3,0.3-0.6,0.8-0.6c0.5,0,1.2,0.2,1.7,0.6l0.6-1.1
							c-0.7-0.4-1.5-0.7-2.3-0.7c-1.2,0-2.2,0.7-2.2,1.9c0,0.8,0.8,1.4,1.8,1.7c0.8,0.2,1.5,0.5,1.5,0.9c0,0.3-0.3,0.6-0.9,0.6
							c-0.6,0-1.3-0.2-2.1-0.7l-0.6,1.1c0.8,0.6,1.8,0.9,2.6,0.9c1.3,0,2.3-0.6,2.3-1.9C17.3,28.8,16.5,28.3,15.5,28"/>
						<path id="Fill-13" class="st0" d="M10.1,28c-0.8-0.3-1.5-0.5-1.5-0.9c0-0.3,0.3-0.6,0.8-0.6c0.5,0,1.2,0.2,1.7,0.6l0.6-1.1
							c-0.7-0.4-1.5-0.7-2.3-0.7c-1.2,0-2.2,0.7-2.2,1.9C7.2,28,8,28.6,9,28.9c0.8,0.2,1.5,0.5,1.5,0.9c0,0.3-0.3,0.6-0.9,0.6
							c-0.6,0-1.3-0.2-2.1-0.7l-0.6,1.1c0.8,0.6,1.8,0.9,2.6,0.9c1.3,0,2.3-0.6,2.3-1.9C11.8,28.8,11,28.3,10.1,28"/>
						<path id="Fill-15" class="st0" d="M18.5,2.2c2,0,3.8,0.8,5.2,2.1c0.5,0.5,0.9,1,0.9,1l-5.1,5.1c-0.5,0.5-1.4,0.5-1.9,0
							C17,10,17,9.1,17.5,8.6l3.1-3.1C20,5.2,19.2,5,18.5,5c-2.5,0-4.6,2-4.6,4.6c0,2.5,2.1,4.6,4.6,4.6c2,0,4.1-1.4,4.5-3.9h2.8
							c-0.4,4-3.7,6.6-7.3,6.6c-4.1,0-7.3-3.3-7.3-7.3C11.2,5.5,14.5,2.2,18.5,2.2 M18.5,19.1c6.8,0,12.7-3.8,15.9-9.5
							C31.2,3.8,25.3,0,18.5,0S5.8,3.8,2.6,9.5C5.8,15.3,11.7,19.1,18.5,19.1"/>
					</g>
				</g>
			</g>
		</g>
	</g>
</g>
</svg>
