<svg xmlns="http://www.w3.org/2000/svg" xmlns:xlink="http://www.w3.org/1999/xlink" width="20" height="11" viewBox="0 0 20 11">
    <defs>
        <path id="a6vp2k3jra" d="M0 0L18.238 0 18.238 11 0 11z"/>
    </defs>
    <g fill="none" fill-rule="evenodd">
        <g>
            <g>
                <g>
                    <g>
                        <g>
                            <g>
                                <g transform="translate(-322 -221) translate(35 35) translate(40 110) translate(-1 60) translate(20.5 13) translate(228 3)">
                                    <mask id="89ut3metob" fill="#fff">
                                        <use xlink:href="#a6vp2k3jra"/>
                                    </mask>
                                    <path fill="#0086D6" d="M9.098 1c3.264.066 6.282 1.753 8.05 4.5-1.752 2.737-4.752 4.424-8 4.5-4.05 0-7.19-3.5-8.05-4.5.86-1 4-4.5 8-4.5m0 10c3.736-.051 7.176-2.044 9.08-5.26.08-.15.08-.33 0-.48C16.273 2.044 12.832.051 9.097 0c-5.2 0-8.89 5-9 5.21-.13.171-.13.409 0 .58.11.22 3.8 5.21 9 5.21" mask="url(#89ut3metob)"/>
                                </g>
                                <path fill="#0086D6" d="M9.098 3.11c1.32 0 2.39 1.07 2.39 2.39s-1.07 2.39-2.39 2.39-2.39-1.07-2.39-2.39 1.07-2.39 2.39-2.39m0 5.78c1.871 0 3.39-1.518 3.39-3.39s-1.518-3.39-3.39-3.39c-1.873 0-3.39 1.518-3.39 3.39s1.518 3.39 3.39 3.39" transform="translate(-322 -221) translate(35 35) translate(40 110) translate(-1 60) translate(20.5 13) translate(228 3)"/>
                            </g>
                        </g>
                    </g>
                </g>
            </g>
        </g>
    </g>
</svg>
