<svg xmlns="http://www.w3.org/2000/svg" xmlns:xlink="http://www.w3.org/1999/xlink" width="109" height="31" viewBox="0 0 109 31">
    <defs>
        <path id="xry36uieca" d="M0.018 0.049L15.403 0.049 15.403 23.111 0.018 23.111z"/>
    </defs>
    <g fill="none" fill-rule="evenodd">
        <g>
            <g>
                <g>
                    <g>
                        <g>
                            <path fill="#FFFFFE" d="M0 0L0 23 13 23 13 20.625 2.528 20.625 2.528 12.044 12.158 12.044 12.158 9.668 2.528 9.668 2.528 2.376 12.773 2.376 12.773 0z" transform="translate(-461 -482) translate(35 35) translate(40 110) translate(300) translate(86 337)"/>
                            <g>
                                <g transform="translate(-461 -482) translate(35 35) translate(40 110) translate(300) translate(86 337) translate(14 6) translate(0 .444)">
                                    <mask id="rz97t3tieb" fill="#fff">
                                        <use xlink:href="#xry36uieca"/>
                                    </mask>
                                    <path fill="#FFFFFE" d="M1.608 20.622c.454.16 1.006.258 1.623.258 1.16 0 1.896-.343 2.695-2.329l.713-1.845L.018.05H2.42l5.388 13.747L13.002.049h2.401l-7.4 19.083c-.91 2.395-2.139 3.98-4.772 3.98-.617 0-1.17-.098-1.623-.292v-2.198z" mask="url(#rz97t3tieb)"/>
                                </g>
                                <path fill="#FFFFFE" d="M18.277 7.059c.097-1.325.68-2.457 1.752-3.395 1.071-.938 2.37-1.424 3.863-1.424 1.363 0 2.532.486 3.505 1.424.974.938 1.462 2.07 1.462 3.395H18.277zm13.145 1.068c0-2.296-.714-4.205-2.11-5.758C27.916.784 26.131.007 23.892.007c-2.37 0-4.35.81-5.876 2.395-1.526 1.585-2.304 3.753-2.304 6.372 0 2.523.746 4.625 2.272 6.145 1.526 1.52 3.538 2.298 5.972 2.298 2.695 0 4.903-.97 6.622-2.88l-1.59-1.552c-1.46 1.552-2.791 2.265-5.032 2.265-3.407 0-5.713-2.297-5.842-5.888H31.39c.032-.323.032-.68.032-1.035zM33.026 16.796L33.026 14.401 42.341 3.953 34 3.953 34 .493 47.762.493 47.762 3.178 38.803 13.335 48.151 13.335 48.151 16.796zM68.35 16.796V.493h3.862V2.82c.778-1.585 2.596-2.65 4.9-2.65 3.864 0 6.103 2.489 6.103 6.532v5.144c0 1.26.228 1.713 1.103 1.713.195 0 .39-.031.553-.064v3.267c-.455.13-1.007.194-1.689.194-2.563 0-3.83-1.424-3.83-4.269V7.253c0-2.232-1.266-3.622-3.44-3.622-2.176 0-3.7 1.552-3.7 3.785v9.38h-3.863zM53.313 6.898c.097-1.003.584-1.844 1.46-2.524.876-.679 1.948-1.034 3.148-1.034 1.137 0 2.078.355 2.89 1.067.811.679 1.233 1.521 1.233 2.49h-8.731zm12.691 1.359c0-2.329-.746-4.27-2.272-5.855C62.239.817 60.292.04 57.922.04c-2.5 0-4.545.777-6.167 2.362-1.592 1.584-2.402 3.719-2.402 6.307 0 2.556.81 4.657 2.402 6.178 1.59 1.52 3.7 2.297 6.264 2.297 2.76 0 5.032-.97 6.881-2.91l-2.336-2.265c-1.266 1.26-2.726 1.876-4.415 1.876-2.888 0-4.804-1.682-4.934-4.271H65.94c.033-.42.065-.872.065-1.357zM90.675 16.796v-3.917h.074l2.06 2.095 2.061-2.095h.074v3.917h-.792v-2.148L92.81 16.12l-1.342-1.473v2.148h-.793zm-2.525 0v-3.149h-1.247v-.758h3.286v.758h-1.245v3.149h-.794z" transform="translate(-461 -482) translate(35 35) translate(40 110) translate(300) translate(86 337) translate(14 6)"/>
                            </g>
                        </g>
                    </g>
                </g>
            </g>
        </g>
    </g>
</svg>
