<svg xmlns="http://www.w3.org/2000/svg" xmlns:xlink="http://www.w3.org/1999/xlink" width="13" height="19" viewBox="0 0 13 19">
    <defs>
        <filter id="pbgr4aytfa">
            <feColorMatrix in="SourceGraphic" values="0 0 0 0 1.000000 0 0 0 0 1.000000 0 0 0 0 1.000000 0 0 0 1.000000 0"/>
        </filter>
        <path id="5s3br9sj5b" d="M0 0L12.629 0 12.629 18.546 0 18.546z"/>
    </defs>
    <g fill="none" fill-rule="evenodd">
        <g>
            <g filter="url(#pbgr4aytfa)" transform="translate(-49 -719) translate(35 708)">
                <g transform="translate(14 11)">
                    <mask id="uhuj0d4eyc" fill="#fff">
                        <use xlink:href="#5s3br9sj5b"/>
                    </mask>
                    <path fill="#000" d="M6.314 4.68c-.897 0-1.625.727-1.625 1.622 0 .896.728 1.622 1.625 1.622.898 0 1.625-.726 1.625-1.622 0-.895-.727-1.621-1.625-1.621m0-1.159c1.539 0 2.786 1.245 2.786 2.78 0 1.536-1.247 2.781-2.786 2.781-1.538 0-2.785-1.245-2.785-2.78 0-1.536 1.247-2.781 2.785-2.781m0-2.363c-2.846 0-5.153 2.303-5.153 5.143 0 .892.227 1.75.653 2.51.017.03.03.06.041.09l4.459 7.885 4.473-7.92c.008-.019.017-.037.028-.056.426-.76.653-1.617.653-2.509 0-2.84-2.308-5.143-5.154-5.143m0-1.159c3.488 0 6.315 2.822 6.315 6.302 0 1.068-.267 2.098-.768 3.015-.01.02-.019.041-.031.062L6.82 18.25c-.222.393-.789.393-1.011 0L.793 9.38c-.019-.032-.034-.066-.045-.1C.26 8.372 0 7.355 0 6.302 0 2.822 2.827 0 6.314 0" mask="url(#uhuj0d4eyc)"/>
                </g>
            </g>
        </g>
    </g>
</svg>
