<svg xmlns="http://www.w3.org/2000/svg" xmlns:xlink="http://www.w3.org/1999/xlink" width="21" height="21" viewBox="0 0 21 21">
    <defs>
        <path id="u31jvfamya" d="M0 21L21 21 21 0 0 0z"/>
    </defs>
    <g fill="none" fill-rule="evenodd">
        <g>
            <g>
                <g>
                    <g transform="translate(-414 -624) translate(150 612) translate(251) translate(13 12)">
                        <path fill="#FFF" d="M10.5 0C4.701 0 0 4.701 0 10.5S4.701 21 10.5 21 21 16.299 21 10.5 16.299 0 10.5 0m0 1.05c5.21 0 9.45 4.24 9.45 9.45 0 5.21-4.24 9.45-9.45 9.45-5.21 0-9.45-4.24-9.45-9.45 0-5.21 4.24-9.45 9.45-9.45"/>
                        <path fill="#FFF" d="M10.5 5.168c.572 0 1.036.464 1.036 1.037 0 .572-.464 1.036-1.036 1.036-.572 0-1.036-.464-1.036-1.036 0-.573.464-1.037 1.036-1.037"/>
                        <mask id="puwj4t4ntb" fill="#fff">
                            <use xlink:href="#u31jvfamya"/>
                        </mask>
                        <path fill="#FFF" d="M9.765 15.832L11.235 15.832 11.235 8.654 9.765 8.654z" mask="url(#puwj4t4ntb)"/>
                    </g>
                </g>
            </g>
        </g>
    </g>
</svg>
