<svg xmlns="http://www.w3.org/2000/svg" viewBox="0 0 31.33 36.02"><defs><style>.cls-1{fill:#0086d6;}</style></defs><title>LensProposalBuilder_LensConsultation_Blue</title><g id="Calque_2" data-name="Calque 2"><g id="Calque_1-2" data-name="Calque 1"><path class="cls-1" d="M14.72,5.59C13.48,2,11.8,0,9.78,0L6.69,0H6.61C4.66,0,3,2,1.75,5.58A40,40,0,0,0,0,18,39.87,39.87,0,0,0,1.78,30.45C3,34.09,4.71,36,6.65,36h.17l3,0h0c1.94,0,3.63-1.92,4.87-5.56A39.87,39.87,0,0,0,16.47,18,39.66,39.66,0,0,0,14.72,5.59ZM6.66,34.51h0c-1.18,0-2.45-1.74-3.41-4.54A38.34,38.34,0,0,1,1.5,18a38.42,38.42,0,0,1,1.67-12c1-2.85,2.26-4.55,3.53-4.55s2.48,1.7,3.44,4.55a38.13,38.13,0,0,1,1.67,12,38.36,38.36,0,0,1-1.69,12c-.79,2.28-1.77,3.82-2.74,4.35l-.45.16A1.24,1.24,0,0,1,6.66,34.51ZM13.27,30c-1,2.84-2.26,4.54-3.45,4.54H9.46a12.84,12.84,0,0,0,2.12-4.08A39.89,39.89,0,0,0,13.35,18C13.36,11.41,12,4.5,9.5,1.52h.35c1.19,0,2.48,1.7,3.45,4.55A38.42,38.42,0,0,1,15,18,38.34,38.34,0,0,1,13.27,30Z"/><path class="cls-1" d="M6.7,34.5h0a1.24,1.24,0,0,0,.27,0Z"/><path class="cls-1" d="M26.51,23.58a3.17,3.17,0,1,1,3.17-3.17A3.17,3.17,0,0,1,26.51,23.58Zm0-4.83a1.67,1.67,0,0,0,0,3.33,1.67,1.67,0,1,0,0-3.33Z"/><path class="cls-1" d="M26.51,32.93a3.17,3.17,0,1,1,3.17-3.17A3.17,3.17,0,0,1,26.51,32.93Zm0-4.84a1.67,1.67,0,1,0,1.67,1.67A1.66,1.66,0,0,0,26.51,28.09Z"/><path class="cls-1" d="M26.51,3.84a4.82,4.82,0,1,0,4.82,4.82A4.82,4.82,0,0,0,26.51,3.84Zm2.35,4L26.48,11,24.25,8.92a.75.75,0,0,1,0-1.06.74.74,0,0,1,1.06,0l1,1L27.66,7a.75.75,0,0,1,1.2.9Z"/></g></g></svg>