<svg xmlns="http://www.w3.org/2000/svg" viewBox="0 0 36.25 26.44"><defs><style>.cls-1{fill:#0086d6;}</style></defs><title>LensProposalBuilder_Measures_Blue</title><g id="Calque_2" data-name="Calque 2"><g id="Calque_1-2" data-name="Calque 1"><path class="cls-1" d="M32.42,16.53a.75.75,0,0,1-1.5,0,3.83,3.83,0,0,0-3.78-3.83h-22c.05.68.07,1.38.07,2.07,0,5.8-1.55,11.67-4.5,11.67a.75.75,0,0,1,0-1.5c.61,0,1.36-1,2-2.76a24,24,0,0,0,1-7.42C3.75,8.55,2,4.58.78,4.58a.75.75,0,0,1,0-1.5c1.47,0,2.59,1.47,3.34,3.67a21,21,0,0,1,.93,4.45h22A5.33,5.33,0,0,1,32.42,16.53Z"/><path class="cls-1" d="M7.73,0V8.06H36.25V0Zm27,6.56H32v-3a.75.75,0,1,0-1.5,0V6.56H28.16V5a.75.75,0,0,0-1.5,0V6.56H24.33v-3a.75.75,0,1,0-1.5,0V6.56H20.49V5A.75.75,0,1,0,19,5V6.56H16.65v-3a.75.75,0,0,0-1.5,0V6.56H12.81V5a.75.75,0,0,0-1.5,0V6.56H9.23V1.5H34.75Z"/></g></g></svg>