<svg xmlns="http://www.w3.org/2000/svg" viewBox="0 0 37.63 21.48"><defs><style>.cls-1{fill:#0086d6;}</style></defs><title>LensProposalBuilder_NeedExplorer_Blue</title><g id="Calque_2" data-name="Calque 2"><g id="Calque_1-2" data-name="Calque 1"><path class="cls-1" d="M37.63,21.48H2.29A2.36,2.36,0,0,1,0,19.07V2.41A2.36,2.36,0,0,1,2.29,0H29.12A2.35,2.35,0,0,1,31.4,2.41V14.77ZM2.29,1.5a.86.86,0,0,0-.79.91V19.07a.86.86,0,0,0,.79.91h31.9L29.9,15.36V2.41a.87.87,0,0,0-.78-.91Z"/><path class="cls-1" d="M23.46,8.74H7.26a.75.75,0,0,1,0-1.5h16.2a.75.75,0,0,1,0,1.5Z"/><path class="cls-1" d="M17.58,14.24H7.26a.75.75,0,0,1,0-1.5H17.58a.75.75,0,0,1,0,1.5Z"/></g></g></svg>