<svg xmlns="http://www.w3.org/2000/svg" viewBox="0 0 26.73 35.85"><defs><style>.cls-1{fill:#0086d6;}</style></defs><title>LensProposalBuilder_Prescription_Blue</title><g id="Calque_2" data-name="Calque 2"><g id="Calque_1-2" data-name="Calque 1"><path class="cls-1" d="M26,0H.75A.76.76,0,0,0,0,.75V35.1a.76.76,0,0,0,.75.75H26a.76.76,0,0,0,.75-.75V.75A.76.76,0,0,0,26,0Zm-.75,34.35H1.5V1.5H25.23Z"/><path class="cls-1" d="M20.66,19.33H6.08a.75.75,0,1,1,0-1.5H20.66a.75.75,0,0,1,0,1.5Z"/><path class="cls-1" d="M20.66,24.58H6.08a.75.75,0,1,1,0-1.5H20.66a.75.75,0,0,1,0,1.5Z"/><path class="cls-1" d="M20.66,29.83H6.08a.75.75,0,1,1,0-1.5H20.66a.75.75,0,0,1,0,1.5Z"/><path class="cls-1" d="M20.66,7.58H19.58l-.1-.11a3.34,3.34,0,0,0-2.37-1h0a3.36,3.36,0,0,0-2.2.83,3.27,3.27,0,0,0-1.53-.38h0a3.26,3.26,0,0,0-1.53.36,3.41,3.41,0,0,0-2.2-.84h0A3.33,3.33,0,0,0,7.15,7.53H6.08a.75.75,0,0,0-.75.75A.73.73,0,0,0,6.07,9h.28a3.19,3.19,0,0,0-.09.77,3.37,3.37,0,0,0,3.35,3.37h0A3.36,3.36,0,0,0,13,9.81a3.27,3.27,0,0,0-.26-1.29,2.15,2.15,0,0,1,.64-.1,1.91,1.91,0,0,1,.64.1,3.32,3.32,0,0,0-.26,1.3,3.66,3.66,0,0,0,0,.57,3.34,3.34,0,0,0,3.3,2.79h0a3.35,3.35,0,0,0,3.36-3.34,3.16,3.16,0,0,0-.09-.76h.29a.76.76,0,0,0,.75-.75A.75.75,0,0,0,20.66,7.58Zm-11,4.08h0A1.87,1.87,0,0,1,7.76,9.79a1.82,1.82,0,0,1,.32-1,1.85,1.85,0,0,1,1.54-.82h0a1.86,1.86,0,0,1,0,3.72Zm8.79-.52a1.85,1.85,0,0,1-1.31.54h0a1.85,1.85,0,0,1-1.82-1.54,1.73,1.73,0,0,1,0-.32A1.87,1.87,0,0,1,17.1,8h0a1.86,1.86,0,0,1,1.31.55,2,2,0,0,1,.23.28,1.89,1.89,0,0,1,.31,1A1.84,1.84,0,0,1,18.41,11.14Z"/></g></g></svg>