<svg xmlns="http://www.w3.org/2000/svg" xmlns:xlink="http://www.w3.org/1999/xlink" width="119" height="27" viewBox="0 0 119 27">
    <defs>
        <path id="58m8ioxdna" d="M0.152 0.316L4.891 0.316 4.891 5.165 0.152 5.165z"/>
    </defs>
    <g fill="none" fill-rule="evenodd">
        <g>
            <g>
                <g>
                    <g>
                        <path fill="#FFFFFE" d="M15.872 1.696L8.822 18.336 4.42 7.957 0 7.957 7.058 24.304 10.584 24.304 20.348 1.696z" transform="translate(-156 -486) translate(35 35) translate(40 110) translate(81 341.5)"/>
                        <g>
                            <path fill="#FFFFFE" d="M9.159 21.043c-2.932 0-4.937-2.313-4.937-5.257 0-2.989 2.052-5.26 4.937-5.26 2.74 0 5.104 2.142 5.104 5.26 0 3.153-2.421 5.257-5.104 5.257M17.94 19.2V7.18h-3.977v2.493c-.63-1.639-2.65-2.868-5.334-2.868-2.354 0-4.341.853-5.965 2.595-1.59 1.707-2.387 3.824-2.387 6.386 0 2.562.797 4.679 2.387 6.42C4.29 23.948 6.276 24.8 8.63 24.8c2.65 0 4.572-.888 5.732-2.698.276 1.471 1.37 2.63 3.677 2.63.863 0 1.525-.103 1.957-.272v-3.313c-.3.034-.597.067-.829.067-.896 0-1.226-.546-1.226-2.015M27.272 9.74V7.18h-3.945v17.212h3.945v-9.05c0-2.836 1.754-4.61 4.505-4.61.596 0 1.16.068 1.658.171V6.94c-.332-.068-.73-.102-1.195-.102-2.351 0-4.174 1.093-4.968 2.903" transform="translate(-156 -486) translate(35 35) translate(40 110) translate(81 341.5) translate(19.217 .565)"/>
                            <g transform="translate(-156 -486) translate(35 35) translate(40 110) translate(81 341.5) translate(19.217 .565) translate(35.514)">
                                <mask id="q72sjiew1b" fill="#fff">
                                    <use xlink:href="#58m8ioxdna"/>
                                </mask>
                                <path fill="#FFFFFE" d="M2.537 5.165c1.294 0 2.354-1.06 2.354-2.423 0-1.366-1.06-2.426-2.354-2.426C1.214.316.152 1.376.152 2.742c0 1.364 1.062 2.423 2.385 2.423" mask="url(#q72sjiew1b)"/>
                            </g>
                            <path fill="#FFFFFE" d="M40.041 19.27V7.18h-3.976v13.182c0 2.902 1.291 4.37 3.844 4.37.927 0 1.589-.102 1.987-.272v-3.45c-.165.034-.398.069-.696.069-.893 0-1.159-.479-1.159-1.81M49.415 18.757V.589H45.44v18.715c0 3.72 1.756 5.565 5.268 5.565.796 0 1.426-.068 1.89-.205v-3.652c-.331.101-.73.137-1.194.137-1.459 0-1.988-.718-1.988-2.392M70.166 19.166V7.18H66.19v9.904c0 2.355-1.524 3.995-3.645 3.995-2.155 0-3.381-1.47-3.381-3.824V7.18h-3.976v10.655c0 4.269 2.386 6.897 6.363 6.897 2.418 0 4.108-.852 5.069-2.527.233 1.001 1.16 2.493 3.646 2.493.86 0 1.523-.101 1.954-.271v-3.348c-.298.035-.598.069-.829.069-.893 0-1.225-.513-1.225-1.982M94.799.588L90.458.588 82.298 12.336 78.653 7.181 74.242 7.181 80.06 15.38 73.781 24.392 78.057 24.392 82.247 18.388 86.437 24.392 90.812 24.392 84.486 15.273zM95.365 24.207c-1.275 0-2.193-.929-2.193-2.26 0-1.348.918-2.293 2.193-2.293 1.274 0 2.21.945 2.21 2.293 0 1.331-.936 2.26-2.21 2.26m1.953-4.257c-.526-.525-1.188-.787-1.953-.787-.766 0-1.428.262-1.954.787-.528.526-.782 1.19-.782 1.997 0 .806.254 1.471.782 1.998.526.525 1.188.787 1.954.787.765 0 1.427-.262 1.953-.787.545-.527.816-1.192.816-1.998s-.271-1.471-.816-1.997" transform="translate(-156 -486) translate(35 35) translate(40 110) translate(81 341.5) translate(19.217 .565)"/>
                            <path fill="#FFFFFE" d="M95.45 21.825h-.51v-.98h.51c.254 0 .44.21.44.472 0 .28-.186.508-.44.508m1.02-.544c0-.578-.408-.998-1.004-.998h-1.105v3.205h.58v-1.172h.407l.679 1.172h.68l-.748-1.279c.34-.192.51-.507.51-.928" transform="translate(-156 -486) translate(35 35) translate(40 110) translate(81 341.5) translate(19.217 .565)"/>
                        </g>
                    </g>
                </g>
            </g>
        </g>
    </g>
</svg>
